# xmcd CD database file
#
# Track frame offsets:
#	150
#	36567
#	68207
#	93032
#	136735
#	166212
#	193002
#	222600
#	249185
#	278832
#	318620
#
# Disc length: 4462 seconds
#
# Revision: 0
# Processed by: cddbd v1.5.1PL0 Copyright (c) Steve Scherf et al.
# Submitted via: CDex 1.51
#
DISCID=9f116c0b
DTITLE=Various Artist - future jazz at the lounge mirage
DYEAR=2000
DGENRE=Techno
TTITLE0=King Britt and Ursula Rucker - Circle (Jazzanova Mix)
TTITLE1=USG Presents African Blues - Inside Your Mind
TTITLE2=P'Taah - Apricot
TTITLE3=Karma - High Priestess ('97 Live Remix)
TTITLE4=Joakim Lone Octet - pailo pailo (sci-clone Remix)
TTITLE5=Yennah - Are We Being Clear?
TTITLE6=Quant - I Like This
TTITLE7=Audiomontage - Snert
TTITLE8=DJ Sasse - My Thing
TTITLE9=Kevin Yost - So Far Away
TTITLE10=A:xus - Nice To See You Again
EXTD=YEAR: 2000
EXTT0=
EXTT1=
EXTT2=
EXTT3=
EXTT4=
EXTT5=
EXTT6=
EXTT7=
EXTT8=
EXTT9=
EXTT10=
PLAYORDER=
